<svg width="128" height="35" viewBox="0 0 128 35" fill="none" xmlns="http://www.w3.org/2000/svg">
<path d="M27.4359 34.9185H24.9418V31.1773C24.9398 29.5241 24.2822 27.9393 23.1132 26.7703C21.9443 25.6014 20.3594 24.9438 18.7063 24.9418H11.2238C9.57063 24.9438 7.98577 25.6014 6.81683 26.7703C5.64788 27.9393 4.9903 29.5241 4.98832 31.1773V34.9185H2.49414V31.1773C2.49678 28.8628 3.41736 26.6439 5.05391 25.0074C6.69046 23.3708 8.90934 22.4503 11.2238 22.4476H18.7063C21.0207 22.4503 23.2396 23.3708 24.8762 25.0074C26.5127 26.6439 27.4333 28.8628 27.4359 31.1773V34.9185Z" fill="#5285F2"/>
<path d="M1.24709 4.9884C0.916341 4.9884 0.599139 5.11979 0.365264 5.35367C0.13139 5.58754 0 5.90474 0 6.23549V17.4593H2.49418V6.23549C2.49418 5.90474 2.36279 5.58754 2.12891 5.35367C1.89504 5.11979 1.57784 4.9884 1.24709 4.9884Z" fill="#5285F2"/>
<path d="M0 0V2.49418H6.23545V11.2238C6.23545 13.539 7.15517 15.7595 8.79229 17.3966C10.4294 19.0337 12.6498 19.9534 14.9651 19.9534C17.2803 19.9534 19.5007 19.0337 21.1378 17.3966C22.775 15.7595 23.6947 13.539 23.6947 11.2238V2.49418H29.9301V0H0ZM8.72962 2.49418H21.2005V6.23545H8.72962V2.49418ZM14.9651 17.4593C13.3113 17.4593 11.7253 16.8023 10.5559 15.6329C9.38657 14.4636 8.72962 12.8775 8.72962 11.2238V8.72963H21.2005V11.2238C21.2005 12.8775 20.5436 14.4636 19.3742 15.6329C18.2048 16.8023 16.6188 17.4593 14.9651 17.4593Z" fill="#5285F2"/>
<path d="M36.8131 26V10.2944H47.4194V13.2633H40.3485V16.3455H46.6262V19.2464H40.3485V23.0311H47.9407V26H36.8131ZM52.943 19.9489C52.943 20.9914 53.1772 21.83 53.6456 22.4645C54.1139 23.0991 54.809 23.4164 55.7306 23.4164C56.0328 23.4164 56.3123 23.4088 56.5691 23.3937C56.826 23.3635 57.0375 23.3333 57.2037 23.3031V17.1614C56.9922 17.0254 56.7127 16.9121 56.3652 16.8214C56.0328 16.7308 55.6928 16.6854 55.3453 16.6854C53.7438 16.6854 52.943 17.7733 52.943 19.9489ZM60.5805 25.6147C60.2783 25.7054 59.9308 25.796 59.538 25.8867C59.1452 25.9622 58.7297 26.0302 58.2915 26.0907C57.8685 26.1511 57.4303 26.1964 56.9771 26.2266C56.5389 26.272 56.1159 26.2946 55.7079 26.2946C54.7259 26.2946 53.8495 26.1511 53.079 25.864C52.3085 25.577 51.6588 25.169 51.13 24.6402C50.6012 24.0963 50.1932 23.4466 49.9062 22.6912C49.6342 21.9206 49.4982 21.0594 49.4982 20.1076C49.4982 19.1406 49.6191 18.2719 49.8608 17.5013C50.1026 16.7157 50.4501 16.0509 50.9033 15.507C51.3566 14.963 51.9081 14.5476 52.5577 14.2605C53.2225 13.9734 53.978 13.8299 54.8241 13.8299C55.2924 13.8299 55.7079 13.8752 56.0705 13.9659C56.4483 14.0565 56.826 14.1849 57.2037 14.3511V8.95731L60.5805 8.41339V25.6147ZM73.9181 25.5921C73.344 25.7583 72.6037 25.9093 71.6971 26.0453C70.7906 26.1964 69.8388 26.272 68.8416 26.272C67.8293 26.272 66.9832 26.136 66.3033 25.864C65.6385 25.5921 65.1097 25.2143 64.7169 24.7309C64.3241 24.2323 64.0445 23.643 63.8783 22.9631C63.7121 22.2832 63.629 21.5354 63.629 20.7195V14.0792H67.0059V20.3115C67.0059 21.3994 67.1494 22.185 67.4365 22.6685C67.7235 23.152 68.2599 23.3937 69.0455 23.3937C69.2873 23.3937 69.5441 23.3862 69.8161 23.3711C70.088 23.3409 70.3298 23.3106 70.5413 23.2804V14.0792H73.9181V25.5921ZM85.9039 20.7195C85.9039 21.49 85.8133 22.2153 85.632 22.8951C85.4658 23.575 85.1636 24.1718 84.7254 24.6855C84.3024 25.1841 83.7207 25.5845 82.9804 25.8867C82.2551 26.1738 81.3335 26.3173 80.2155 26.3173C79.1881 26.3173 78.3042 26.1964 77.5639 25.9547C76.8235 25.6978 76.2116 25.4032 75.7282 25.0708L76.9066 22.3286C77.3448 22.5854 77.8132 22.812 78.3118 23.0085C78.8103 23.2049 79.3543 23.3031 79.9435 23.3031C80.8047 23.3031 81.4242 23.0916 81.8019 22.6685C82.1796 22.2455 82.3685 21.5354 82.3685 20.5382V10.2944H85.9039V20.7195ZM100.234 20.0169C100.234 20.9537 100.098 21.8149 99.8258 22.6005C99.5539 23.3711 99.161 24.0359 98.6473 24.5949C98.1336 25.1388 97.5142 25.5618 96.789 25.864C96.0788 26.1662 95.2781 26.3173 94.3867 26.3173C93.5104 26.3173 92.7096 26.1662 91.9844 25.864C91.2743 25.5618 90.6623 25.1388 90.1487 24.5949C89.635 24.0359 89.2346 23.3711 88.9475 22.6005C88.6604 21.8149 88.5169 20.9537 88.5169 20.0169C88.5169 19.0802 88.6604 18.2265 88.9475 17.456C89.2497 16.6854 89.6576 16.0282 90.1713 15.4843C90.7001 14.9404 91.3196 14.5173 92.0297 14.2152C92.7549 13.913 93.5406 13.7619 94.3867 13.7619C95.2479 13.7619 96.0335 13.913 96.7436 14.2152C97.4688 14.5173 98.0883 14.9404 98.602 15.4843C99.1157 16.0282 99.5161 16.6854 99.8032 17.456C100.09 18.2265 100.234 19.0802 100.234 20.0169ZM96.789 20.0169C96.789 18.9744 96.5774 18.1585 96.1544 17.5693C95.7465 16.965 95.1572 16.6628 94.3867 16.6628C93.6161 16.6628 93.0193 16.965 92.5963 17.5693C92.1732 18.1585 91.9617 18.9744 91.9617 20.0169C91.9617 21.0594 92.1732 21.8904 92.5963 22.5099C93.0193 23.1142 93.6161 23.4164 94.3867 23.4164C95.1572 23.4164 95.7465 23.1142 96.1544 22.5099C96.5774 21.8904 96.789 21.0594 96.789 20.0169ZM113.025 25.5921C112.451 25.7583 111.711 25.9093 110.804 26.0453C109.898 26.1964 108.946 26.272 107.949 26.272C106.936 26.272 106.09 26.136 105.411 25.864C104.746 25.5921 104.217 25.2143 103.824 24.7309C103.431 24.2323 103.152 23.643 102.986 22.9631C102.819 22.2832 102.736 21.5354 102.736 20.7195V14.0792H106.113V20.3115C106.113 21.3994 106.257 22.185 106.544 22.6685C106.831 23.152 107.367 23.3937 108.153 23.3937C108.394 23.3937 108.651 23.3862 108.923 23.3711C109.195 23.3409 109.437 23.3106 109.649 23.2804V14.0792H113.025V25.5921ZM123.379 17.0707C123.077 16.9952 122.722 16.9196 122.314 16.8441C121.906 16.7534 121.468 16.7081 121 16.7081C120.788 16.7081 120.531 16.7308 120.229 16.7761C119.942 16.8063 119.723 16.8441 119.572 16.8894V26H116.195V14.7138C116.8 14.5022 117.51 14.3058 118.325 14.1245C119.156 13.9281 120.078 13.8299 121.09 13.8299C121.272 13.8299 121.491 13.845 121.748 13.8752C122.004 13.8903 122.261 13.9205 122.518 13.9659C122.775 13.9961 123.032 14.0414 123.289 14.1018C123.546 14.1472 123.765 14.2076 123.946 14.2832L123.379 17.0707Z" fill="#5285F2"/>
</svg>
