<svg width="24" height="24" viewBox="0 0 24 24" fill="none" xmlns="http://www.w3.org/2000/svg">
<path fill-rule="evenodd" clip-rule="evenodd" d="M15.7158 16.9739H8.49585C8.08185 16.9739 7.74585 16.6379 7.74585 16.2239C7.74585 15.8099 8.08185 15.4739 8.49585 15.4739H15.7158C16.1298 15.4739 16.4658 15.8099 16.4658 16.2239C16.4658 16.6379 16.1298 16.9739 15.7158 16.9739Z" fill="#8a8a8a"/>
<path fill-rule="evenodd" clip-rule="evenodd" d="M15.7158 12.7874H8.49585C8.08185 12.7874 7.74585 12.4514 7.74585 12.0374C7.74585 11.6234 8.08185 11.2874 8.49585 11.2874H15.7158C16.1298 11.2874 16.4658 11.6234 16.4658 12.0374C16.4658 12.4514 16.1298 12.7874 15.7158 12.7874Z" fill="#8a8a8a"/>
<path fill-rule="evenodd" clip-rule="evenodd" d="M11.2506 8.6106H8.49561C8.08161 8.6106 7.74561 8.2746 7.74561 7.8606C7.74561 7.4466 8.08161 7.1106 8.49561 7.1106H11.2506C11.6646 7.1106 12.0006 7.4466 12.0006 7.8606C12.0006 8.2746 11.6646 8.6106 11.2506 8.6106Z" fill="#8a8a8a"/>
<path fill-rule="evenodd" clip-rule="evenodd" d="M15.9088 3.50012L8.21976 3.50412C5.89176 3.51812 4.49976 4.95812 4.49976 7.35712V16.5531C4.49976 18.9681 5.90476 20.4101 8.25576 20.4101L15.9448 20.4071C18.2728 20.3931 19.6648 18.9511 19.6648 16.5531V7.35712C19.6648 4.94212 18.2608 3.50012 15.9088 3.50012ZM8.25676 21.9101C5.11276 21.9101 2.99976 19.7571 2.99976 16.5531V7.35712C2.99976 4.12412 5.04676 2.02312 8.21476 2.00412L15.9078 2.00012H15.9088C19.0528 2.00012 21.1648 4.15312 21.1648 7.35712V16.5531C21.1648 19.7851 19.1178 21.8871 15.9498 21.9071L8.25676 21.9101Z" fill="#8a8a8a"/>
</svg>
