<svg width="24" height="24" viewBox="0 0 24 24" fill="none" xmlns="http://www.w3.org/2000/svg">
<path fill-rule="evenodd" clip-rule="evenodd" d="M14.9395 12.4131C14.9395 11.8608 15.3872 11.4131 15.9395 11.4131H15.9485C16.5007 11.4131 16.9485 11.8608 16.9485 12.4131C16.9485 12.9654 16.5007 13.4131 15.9485 13.4131H15.9395C15.3872 13.4131 14.9395 12.9654 14.9395 12.4131Z" fill="#8a8a8a"/>
<path fill-rule="evenodd" clip-rule="evenodd" d="M10.9304 12.4131C10.9304 11.8608 11.3781 11.4131 11.9304 11.4131H11.9394C12.4917 11.4131 12.9394 11.8608 12.9394 12.4131C12.9394 12.9654 12.4917 13.4131 11.9394 13.4131H11.9304C11.3781 13.4131 10.9304 12.9654 10.9304 12.4131Z" fill="#8a8a8a"/>
<path fill-rule="evenodd" clip-rule="evenodd" d="M6.92139 12.4131C6.92139 11.8608 7.3691 11.4131 7.92139 11.4131H7.93039C8.48267 11.4131 8.93039 11.8608 8.93039 12.4131C8.93039 12.9654 8.48267 13.4131 7.93039 13.4131H7.92139C7.3691 13.4131 6.92139 12.9654 6.92139 12.4131Z" fill="#8a8a8a"/>
<path fill-rule="evenodd" clip-rule="evenodd" d="M18.5407 5.45745C14.9324 1.84768 9.06909 1.84768 5.46075 5.45745L5.46059 5.4576C2.6347 8.28294 2.02101 12.471 3.60707 15.8985C3.6124 15.91 3.61743 15.9217 3.62217 15.9334C3.71434 16.1624 3.71226 16.4219 3.70812 16.5687C3.70291 16.753 3.68252 16.9653 3.65735 17.1813C3.63356 17.3855 3.60335 17.6105 3.57263 17.8392L3.56625 17.8868C3.53298 18.1346 3.49911 18.389 3.46954 18.6438C3.40959 19.1606 3.37193 19.6431 3.38868 20.0291C3.39703 20.2215 3.41806 20.364 3.44492 20.4617C3.45396 20.4946 3.46225 20.5173 3.46836 20.5319C3.48296 20.538 3.50562 20.5463 3.53854 20.5553C3.63627 20.5821 3.77884 20.6031 3.97121 20.6115C4.35724 20.6282 4.83978 20.5906 5.35646 20.5306C5.61122 20.5011 5.86561 20.4673 6.11342 20.434L6.16065 20.4277C6.38944 20.397 6.61452 20.3668 6.8188 20.343C7.03477 20.3179 7.24708 20.2976 7.43135 20.2924C7.57812 20.2883 7.8376 20.2862 8.06653 20.3784C8.07823 20.3831 8.0898 20.3881 8.10124 20.3934C11.5294 21.9789 15.7159 21.3659 18.5407 18.5398L18.5408 18.5397C22.1496 14.9303 22.1568 9.07308 18.5408 5.45758L18.5407 5.45745ZM19.6014 4.39686C15.4072 0.201164 8.59401 0.20121 4.39988 4.397C1.13584 7.66053 0.414583 12.4849 2.20893 16.448C2.20946 16.4655 2.20971 16.4912 2.20871 16.5263C2.20541 16.6432 2.19128 16.8031 2.16743 17.0078C2.14523 17.1983 2.11669 17.4108 2.0854 17.6439L2.07958 17.6872C2.04639 17.9345 2.01084 18.2012 1.97954 18.4709C1.91777 19.0033 1.86794 19.5836 1.89009 20.0942C1.9012 20.3501 1.93123 20.6143 1.99855 20.8593C2.06435 21.0986 2.18073 21.375 2.40308 21.5974L2.40343 21.5977C2.62584 21.8199 2.90218 21.9361 3.14144 22.0018C3.38632 22.069 3.65043 22.099 3.90631 22.1101C4.41677 22.1322 4.99698 22.0824 5.52922 22.0207C5.79892 21.9894 6.06555 21.9539 6.31278 21.9207L6.35571 21.915C6.58889 21.8837 6.80149 21.8552 6.99215 21.833C7.19678 21.8092 7.3566 21.7951 7.47349 21.7918C7.50871 21.7908 7.53438 21.7911 7.55191 21.7916C11.5153 23.5851 16.3382 22.865 19.6015 19.6003C23.7952 15.406 23.8041 8.59902 19.6014 4.39686Z" fill="#8a8a8a"/>
</svg>
